<?xml version="1.0" encoding="utf-8"?>
<!-- Generator: Adobe Illustrator 19.0.0, SVG Export Plug-In . SVG Version: 6.00 Build 0)  -->
<svg version="1.1" id="Layer_1" xmlns="http://www.w3.org/2000/svg" xmlns:xlink="http://www.w3.org/1999/xlink" x="0px" y="0px"
	 viewBox="-297 388 16 17" style="enable-background:new -297 388 16 17;" xml:space="preserve">
<style type="text/css">
	.st0{fill:#808080;}
	.st1{fill:#C0C0C0;}
</style>
<g id="XMLID_3_">
	<g>
		<polygon class="st0" points="-282,388 -282,389 -296,389 -296,404 -297,404 -297,389 -297,388 		"/>
	</g>
	<g>
	</g>
</g>
<g id="XMLID_1_">
	<g>
		<polygon class="st1" points="-295,390 -295,403 -296,403 -296,389 -295,389 -283,389 -283,390 		"/>
	</g>
	<g>
	</g>
</g>
<g id="XMLID_4_">
	<g>
		<polygon class="st0" points="-282,404 -282,388 -281,388 -281,405 -282,405 -297,405 -297,404 		"/>
	</g>
	<g>
	</g>
</g>
<g id="XMLID_2_">
	<g>
		<polygon class="st1" points="-282,389 -282,404 -283,404 -296,404 -296,403 -283,403 -283,389 		"/>
	</g>
	<g>
	</g>
</g>
<rect x="-295" y="390" class="st1" width="12" height="13"/>
<path d="M-290,392h-1v7h1v-1h1v-1h1v-1h1v-1h-1v-1h-1v-1h-1V392z"/>
</svg>
